<?xml version="1.0" encoding="UTF-8" standalone="no"?>
<svg xmlns:dc="http://purl.org/dc/elements/1.1/" xmlns:cc="http://creativecommons.org/ns#" xmlns:rdf="http://www.w3.org/1999/02/22-rdf-syntax-ns#" xmlns:svg="http://www.w3.org/2000/svg" xmlns="http://www.w3.org/2000/svg" xmlns:xlink="http://www.w3.org/1999/xlink" width="76.263756" height="98.161636" viewBox="0 0 20.178118 25.971934" version="1.1" id="svg8">
  <defs id="defs2">
    <linearGradient
       id="linearGradient853-1">
      <stop
         style="stop-color:#ffffe5;stop-opacity:1"
         offset="0"
         id="stop849" />
      <stop
         id="stop3510"
         offset="0.15570495"
         style="stop-color:#fcfbb3;stop-opacity:0.98039216;" />
      <stop
         id="stop3508"
         offset="0.41758451"
         style="stop-color:#f8f563;stop-opacity:0.95294118;" />
      <stop
         style="stop-color:#bfbf21;stop-opacity:0.92941177"
         offset="0.83047205"
         id="stop3514" />
      <stop
         style="stop-color:#f4ee00;stop-opacity:0.91902834"
         offset="1"
         id="stop851" />
    </linearGradient>
    <filter
       style="color-interpolation-filters:sRGB"
       id="filter1376">
      <feFlood
         flood-opacity="0.486275"
         flood-color="rgb(0,0,0)"
         result="flood"
         id="feFlood1366" />
      <feComposite
         in="flood"
         in2="SourceGraphic"
         operator="in"
         result="composite1"
         id="feComposite1368" />
      <feGaussianBlur
         in="composite1"
         stdDeviation="4"
         result="blur"
         id="feGaussianBlur1370" />
      <feOffset
         dx="4"
         dy="4"
         result="offset"
         id="feOffset1372" />
      <feComposite
         in="SourceGraphic"
         in2="offset"
         operator="over"
         result="composite2"
         id="feComposite1374" />
    </filter>
    <radialGradient
       xlink:href="#linearGradient853-1"
       id="radialGradient3512"
       cx="74.167465"
       cy="99.497231"
       fx="74.167465"
       fy="99.497231"
       r="53.959774"
       gradientTransform="matrix(0.26244349,1.3710145,-1.0886399,0.20839055,164.59212,-28.487875)"
       gradientUnits="userSpaceOnUse" />
    <radialGradient
       r="53.959774"
       fy="99.497231"
       fx="74.167465"
       cy="99.497231"
       cx="74.167465"
       gradientTransform="matrix(0.26244349,1.3710145,-1.0886399,0.20839055,164.59212,-28.487875)"
       gradientUnits="userSpaceOnUse"
       id="radialGradient853"
       xlink:href="#linearGradient853-1" />
  </defs>
  <metadata
     id="metadata5">
    <rdf:RDF>
      <cc:Work
         rdf:about="">
        <dc:format>image/svg+xml</dc:format>
        <dc:type
           rdf:resource="http://purl.org/dc/dcmitype/StillImage" />
        <dc:title></dc:title>
      </cc:Work>
    </rdf:RDF>
  </metadata>
  <g
     style="display:inline"
     transform="matrix(0.47170467,0,0,0.47170467,-18.832009,-20.445501)"
     id="layer1">
    <path
       transform="matrix(0.39637873,0,0,0.39637873,24.098556,26.163275)"
       style="display:inline;opacity:0.8;fill:url(#radialGradient853);fill-opacity:1;stroke:#000000;stroke-width:0.1;stroke-miterlimit:4;stroke-dasharray:none;stroke-opacity:1;filter:url(#filter1376);image-rendering:auto"
       d="m 89.901633,170.14599 c -0.291042,-0.29104 -0.529167,-0.62173 -0.529167,-0.73488 0,-0.39733 0.827397,-1.38179 1.161346,-1.38179 0.504579,0 2.082591,-2.08455 1.912856,-2.52688 -0.08885,-0.23152 -0.505767,-0.38353 -1.051925,-0.38353 -1.288558,0 -5.197245,-1.1819 -7.127833,-2.15529 C 76.601396,159.09869 69.53461,151.29647 61.384009,137.69929 53.307549,124.2258 50.135775,116.1255 49.13108,106.4069 c -0.443602,-4.29105 -0.168461,-12.106057 0.543608,-15.440463 1.188443,-5.565124 3.640837,-11.39282 6.817058,-16.199578 2.453067,-3.712369 8.44503,-9.685928 12.24322,-12.205617 18.261317,-12.114412 41.889254,-9.619528 57.033814,6.022223 4.52805,4.676702 7.77931,9.788964 9.98809,15.705233 1.31304,3.516982 2.56232,9.029948 2.56315,11.310937 2e-4,0.545703 0.11942,0.992188 0.26495,0.992188 0.16332,0 0.26458,1.367015 0.26458,3.571877 0,2.20486 -0.10126,3.57187 -0.26458,3.57187 -0.14553,0 -0.26459,0.49074 -0.26459,1.09053 0,1.78179 -0.77815,6.48615 -1.60034,9.6749 -1.5619,6.05767 -4.95043,13.37471 -10.45314,22.57207 -5.35081,8.94348 -9.10943,14.06087 -13.72071,18.68084 -5.6334,5.64404 -10.26359,8.20901 -17.154453,9.50303 -0.650478,0.12215 -0.727604,0.24942 -0.727604,1.20064 0,0.67698 0.208941,1.34661 0.574415,1.84094 0.472356,0.6389 0.52342,0.88886 0.287404,1.40686 -0.329991,0.72425 -1.226431,0.96978 -3.540726,0.96978 -1.20165,0 -1.674521,-0.1201 -2.083593,-0.52917 z"
       id="path847" />
  </g>
</svg>
