<?xml version="1.0" encoding="UTF-8" standalone="no"?>
<svg
   xmlns:dc="http://purl.org/dc/elements/1.1/"
   xmlns:cc="http://creativecommons.org/ns#"
   xmlns:rdf="http://www.w3.org/1999/02/22-rdf-syntax-ns#"
   xmlns:svg="http://www.w3.org/2000/svg"
   xmlns="http://www.w3.org/2000/svg"
   xmlns:xlink="http://www.w3.org/1999/xlink"
   xmlns:sodipodi="http://sodipodi.sourceforge.net/DTD/sodipodi-0.dtd"
   xmlns:inkscape="http://www.inkscape.org/namespaces/inkscape"
   id="svg8"
   version="1.1"
   viewBox="0 0 20.178118 25.971934"
   height="98.161636"
   width="76.263756"
   sodipodi:docname="cdr-balloon.svg"
   inkscape:version="1.0beta2 (2b71d25, 2019-12-03)">
  <sodipodi:namedview
     borderlayer="false"
     units="px"
     pagecolor="#ffffff"
     bordercolor="#666666"
     inkscape:document-rotation="0"
     borderopacity="1"
     objecttolerance="10"
     gridtolerance="10"
     guidetolerance="10"
     inkscape:pageopacity="0"
     inkscape:pageshadow="2"
     inkscape:window-width="997"
     inkscape:window-height="643"
     id="namedview1584"
     showgrid="false"
     fit-margin-top="0"
     fit-margin-left="0"
     fit-margin-right="0"
     fit-margin-bottom="0"
     inkscape:pagecheckerboard="true"
     showborder="true"
     inkscape:zoom="1.756539"
     inkscape:cx="31.869555"
     inkscape:cy="47.536663"
     inkscape:window-x="0"
     inkscape:window-y="23"
     inkscape:window-maximized="0"
     inkscape:current-layer="layer1" />
  <defs
     id="defs2">
    <linearGradient
       id="linearGradient853-1">
      <stop
         id="stop849"
         offset="0"
         style="stop-color:#ffffe5;stop-opacity:1" />
      <stop
         style="stop-color:#fcfbb3;stop-opacity:0.98039216;"
         offset="0.15570495"
         id="stop3510" />
      <stop
         style="stop-color:#f8f563;stop-opacity:0.95294118;"
         offset="0.41758451"
         id="stop3508" />
      <stop
         id="stop3514"
         offset="0.83047205"
         style="stop-color:#bfbf21;stop-opacity:0.92941177" />
      <stop
         id="stop851"
         offset="1"
         style="stop-color:#f4ee00;stop-opacity:0.91902834" />
    </linearGradient>
    <filter
       id="filter1376"
       style="color-interpolation-filters:sRGB">
      <feFlood
         id="feFlood1366"
         result="flood"
         flood-color="rgb(0,0,0)"
         flood-opacity="0.486275" />
      <feComposite
         id="feComposite1368"
         result="composite1"
         operator="in"
         in2="SourceGraphic"
         in="flood" />
      <feGaussianBlur
         id="feGaussianBlur1370"
         result="blur"
         stdDeviation="4"
         in="composite1" />
      <feOffset
         id="feOffset1372"
         result="offset"
         dy="4"
         dx="4" />
      <feComposite
         id="feComposite1374"
         result="composite2"
         operator="over"
         in2="offset"
         in="SourceGraphic" />
    </filter>
    <radialGradient
       gradientUnits="userSpaceOnUse"
       gradientTransform="matrix(0.26244349,1.3710145,-1.0886399,0.20839055,164.59212,-28.487875)"
       r="53.959774"
       fy="99.876381"
       fx="75.740219"
       cy="99.876381"
       cx="75.740219"
       id="radialGradient3512"
       xlink:href="#linearGradient853-1" />
  </defs>
  <metadata
     id="metadata5">
    <rdf:RDF>
      <cc:Work
         rdf:about="">
        <dc:format>image/svg+xml</dc:format>
        <dc:type
           rdf:resource="http://purl.org/dc/dcmitype/StillImage" />
        <dc:title></dc:title>
      </cc:Work>
    </rdf:RDF>
  </metadata>
  <g
     id="layer1"
     transform="matrix(0.47170467,0,0,0.47170467,-18.832009,-20.445501)">
    <rect
       y="18.142857"
       x="12.851191"
       height="247.95238"
       width="193.52382"
       id="rect1380"
       style="display:none;fill:#000000;fill-opacity:0.919028;fill-rule:evenodd;stroke:#000000;stroke-width:0.1;stroke-linejoin:round;stroke-miterlimit:4;stroke-dasharray:none;stroke-opacity:1" />
    <path
       id="path847"
       d="m 89.901633,170.14599 c -0.291042,-0.29104 -0.529167,-0.62173 -0.529167,-0.73488 0,-0.39733 0.827397,-1.38179 1.161346,-1.38179 0.504579,0 2.082591,-2.08455 1.912856,-2.52688 -0.08885,-0.23152 -0.505767,-0.38353 -1.051925,-0.38353 -1.288558,0 -5.197245,-1.1819 -7.127833,-2.15529 C 76.601396,159.09869 69.53461,151.29647 61.384009,137.69929 53.307549,124.2258 50.135775,116.1255 49.13108,106.4069 c -0.443602,-4.29105 -0.168461,-12.106057 0.543608,-15.440463 1.188443,-5.565124 3.640837,-11.39282 6.817058,-16.199578 2.453067,-3.712369 8.44503,-9.685928 12.24322,-12.205617 18.261317,-12.114412 41.889254,-9.619528 57.033814,6.022223 4.52805,4.676702 7.77931,9.788964 9.98809,15.705233 1.31304,3.516982 2.56232,9.029948 2.56315,11.310937 2e-4,0.545703 0.11942,0.992188 0.26495,0.992188 0.16332,0 0.26458,1.367015 0.26458,3.571877 0,2.20486 -0.10126,3.57187 -0.26458,3.57187 -0.14553,0 -0.26459,0.49074 -0.26459,1.09053 0,1.78179 -0.77815,6.48615 -1.60034,9.6749 -1.5619,6.05767 -4.95043,13.37471 -10.45314,22.57207 -5.35081,8.94348 -9.10943,14.06087 -13.72071,18.68084 -5.6334,5.64404 -10.26359,8.20901 -17.154453,9.50303 -0.650478,0.12215 -0.727604,0.24942 -0.727604,1.20064 0,0.67698 0.208941,1.34661 0.574415,1.84094 0.472356,0.6389 0.52342,0.88886 0.287404,1.40686 -0.329991,0.72425 -1.226431,0.96978 -3.540726,0.96978 -1.20165,0 -1.674521,-0.1201 -2.083593,-0.52917 z"
       style="display:inline;opacity:0.9;fill:url(#radialGradient3512);fill-opacity:1;stroke:#000000;stroke-width:0.1;stroke-miterlimit:4;stroke-dasharray:none;stroke-opacity:1;filter:url(#filter1376);image-rendering:auto"
       inkscape:connector-curvature="0"
       transform="matrix(0.39637873,0,0,0.39637873,24.098556,26.163275)" />
  </g>
</svg>
